<svg width="18" height="24" viewBox="0 0 18 24" fill="none" xmlns="http://www.w3.org/2000/svg">
<path d="M9 24C8.32 24 7.745 23.7699 7.275 23.3097V23.3097C6.53201 22.5821 7.41298 21.6206 8.45284 21.6206H9.54716C10.587 21.6206 11.468 22.5821 10.725 23.3097V23.3097C10.255 23.7699 9.68 24 9 24ZM5.02127 19.7993C4.53456 19.7993 4.14 19.4047 4.14 18.918V18.918C4.14 18.4313 4.53456 18.0367 5.02127 18.0367H12.9787C13.4654 18.0367 13.86 18.4313 13.86 18.918V18.918C13.86 19.4047 13.4654 19.7993 12.9787 19.7993H5.02127ZM6.91634 16.2448C5.20121 16.2448 3.43805 15.8322 2.27498 14.5717C1.85282 14.1141 1.47949 13.6192 1.155 13.0869C0.385 11.8237 0 10.399 0 8.81273C0 6.4235 0.89 4.35741 2.67 2.61444C4.45 0.871481 6.56 0 9 0C11.44 0 13.55 0.871481 15.33 2.61444C17.11 4.35741 18 6.4235 18 8.81273C18 10.399 17.62 11.8237 16.86 13.0869C16.5314 13.6331 16.1486 14.1399 15.7115 14.6073C14.5544 15.845 12.8111 16.2448 11.1168 16.2448H6.91634ZM3.04786 12.6871C4.04685 14.0853 5.86318 14.4823 7.5816 14.4823H10.4024C12.1496 14.4823 13.9949 14.0667 14.9923 12.6321C15.1232 12.4438 15.2458 12.2478 15.36 12.0441C15.92 11.0453 16.2 9.96818 16.2 8.81273C16.2 6.87393 15.495 5.2142 14.085 3.83354C12.675 2.45288 10.98 1.76255 9 1.76255C7.02 1.76255 5.325 2.45288 3.915 3.83354C2.505 5.2142 1.8 6.87393 1.8 8.81273C1.8 9.96818 2.08 11.0453 2.64 12.0441C2.76542 12.2678 2.90137 12.4821 3.04786 12.6871Z" fill="white"/>
</svg>
