<svg width="17" height="17" viewBox="0 0 17 17" fill="none" xmlns="http://www.w3.org/2000/svg">
<path d="M8.4968 17C7.32147 17 6.21721 16.7769 5.18402 16.3307C4.15083 15.8845 3.25081 15.2779 2.48395 14.511C1.71709 13.7442 1.11138 12.8439 0.666817 11.8103C0.222272 10.7766 0 9.67071 0 8.49251C0 7.32098 0.222782 6.21864 0.668345 5.18549C1.11392 4.15234 1.71982 3.25292 2.48603 2.48724C3.25225 1.72156 4.152 1.1156 5.18528 0.66935C6.21855 0.223117 7.32266 0 8.49761 0C9.67255 0 10.7764 0.223026 11.8093 0.669077C12.8422 1.11513 13.7415 1.72083 14.5075 2.48619C15.2734 3.25157 15.8803 4.15108 16.3282 5.18473C16.7761 6.21838 17 7.32098 17 8.49251C17 9.67071 16.777 10.7769 16.3311 11.8111C15.8852 12.8452 15.2789 13.7452 14.5121 14.5108C13.7453 15.2765 12.8449 15.8827 11.8108 16.3296C10.7768 16.7765 9.67212 17 8.4968 17ZM8.49749 15.574C10.4708 15.574 12.1427 14.8879 13.5132 13.5158C14.8837 12.1436 15.569 10.4692 15.569 8.49251C15.569 7.66903 15.4291 6.87384 15.1494 6.10693C14.8697 5.34 14.4731 4.64228 13.9596 4.01375L4.01373 13.9546C4.62592 14.4886 5.31871 14.892 6.09211 15.1648C6.8655 15.4376 7.6673 15.574 8.49749 15.574ZM3.05635 12.9763L12.9762 3.05137C12.3438 2.52577 11.6458 2.12431 10.8824 1.84701C10.1189 1.5697 9.32395 1.43105 8.49749 1.43105C6.52415 1.43105 4.85224 2.11524 3.48175 3.48364C2.11127 4.85201 1.42602 6.52164 1.42602 8.49251C1.42602 9.32385 1.57332 10.1243 1.86792 10.894C2.16251 11.6637 2.55866 12.3577 3.05635 12.9763Z" fill="black"/>
</svg>
